<svg width="12" height="4" viewBox="0 0 12 4" fill="none" xmlns="http://www.w3.org/2000/svg">
<path d="M8.28173 0.799652H6.15569H3.90605C3.46106 0.799652 3.1644 1.04426 3.11496 1.38671C3.09024 1.50902 3.09024 1.63132 3.09024 1.63132H8.89977C8.89977 1.63132 8.89977 1.55794 8.92449 1.48456C8.99865 1.11764 8.85032 0.799652 8.28173 0.799652Z" fill="#DD0000"/>
<path d="M8.89989 1.94925C8.89989 1.94925 8.87517 2.07155 8.87517 2.19386C8.85045 2.43847 8.65267 2.63416 8.30657 2.63416H7.07051L6.89746 3.7349H5.9086L6.13109 1.94925H8.89989Z" fill="#DD0000"/>
<path d="M0.370767 0.799652H3.01596L2.91707 1.63132H0.271881L0.370767 0.799652Z" fill="#DD0000"/>
<path d="M0.222492 1.94925L0 3.7349H2.64519L2.74407 2.95215H1.08774L1.13718 2.60969H2.79352L2.86768 1.94925H0.222492Z" fill="#DD0000"/>
<path d="M9.22105 0.799652H11.3718C11.7179 0.799652 12.064 0.946418 11.9898 1.48456C11.9651 1.5824 11.9651 1.60686 11.9651 1.60686H9.12216L9.22105 0.799652Z" fill="#DD0000"/>
<path d="M8.87491 3.73476H9.86376L10.0863 1.94911L9.0974 1.92465L8.87491 3.73476Z" fill="#DD0000"/>
<path d="M10.7291 3.73476H11.718L11.9652 1.94911L10.9763 1.92465L10.7291 3.73476Z" fill="#DD0000"/>
<path d="M5.24093 1.94925C5.06788 1.94925 3.41155 1.94925 3.06545 1.94925C2.99129 2.41401 3.2385 2.63416 3.55988 2.63416C3.73293 2.63416 4.89483 2.63416 4.89483 2.63416L4.84539 2.97661H2.91712L2.84296 3.7349C2.84296 3.7349 4.94427 3.7349 5.01844 3.7349C5.0926 3.7349 5.58703 3.71044 5.73536 3.31906C5.7848 3.19676 5.83424 2.732 5.85897 2.63416C5.93313 2.07155 5.53759 1.94925 5.24093 1.94925Z" fill="#DD0000"/>
</svg>
